<svg xmlns="http://www.w3.org/2000/svg" viewBox="0 0 96 96" fill="none">
  <!-- Shield outline -->
  <path d="M48 8L16 22v26c0 20 13.5 33 32 38 18.5-5 32-18 32-38V22L48 8z" fill="#161B22" stroke="#E8D44D" stroke-width="2.5" stroke-linejoin="round"/>
  <!-- Inner shield -->
  <path d="M48 16L22 28v20c0 16.5 11 27.5 26 32 15-4.5 26-15.5 26-32V28L48 16z" fill="#0D1117" opacity="0.5"/>
  <!-- Eye with slash (privacy/hidden) -->
  <ellipse cx="48" cy="46" rx="16" ry="10" fill="none" stroke="#E8D44D" stroke-width="2"/>
  <circle cx="48" cy="46" r="5" fill="none" stroke="#E8D44D" stroke-width="2"/>
  <circle cx="48" cy="46" r="2" fill="#E8D44D"/>
  <!-- Slash through eye -->
  <line x1="36" y1="56" x2="60" y2="36" stroke="#E8D44D" stroke-width="2.5" stroke-linecap="round"/>
  <!-- Key bits -->
  <circle cx="30" cy="70" r="2" fill="#E8D44D" opacity="0.3"/>
  <circle cx="66" cy="70" r="2" fill="#E8D44D" opacity="0.3"/>
  <circle cx="48" cy="74" r="1.5" fill="#E8D44D" opacity="0.25"/>
</svg>
